<svg id="Chasium" data-name="Chasium" xmlns="http://www.w3.org/2000/svg" xmlns:xlink="http://www.w3.org/1999/xlink"
    width="16mm" height="16mm" viewBox="0 0 45.3543 45.3543">
    <defs>
        <style>
            .cls-1
            {
                fill: none;
            }

            .cls-2
            {
                fill: #231815;
            }

            .cls-3
            {
                clip-path: url(#clip-path);
            }
        </style>
        <clipPath id="clip-path">
            <rect class="cls-1" x="0.7087" y="0.7087" width="43.937" height="43.937" rx="10.6299" />
        </clipPath>
    </defs>
    <title>Chasium</title>
    <g>
        <polygon class="cls-2" points="23.92 11.969 25.065 12.807 20.121 18.958 19.186 17.859 23.92 11.969" />
        <polygon class="cls-2" points="24.697 26.025 23.906 27.204 19.778 24.07 20.635 22.941 24.697 26.025" />
        <polygon class="cls-2" points="20.909 32.883 19.845 31.876 24.054 29.045 24.697 30.335 20.909 32.883" />
        <polygon class="cls-2" points="19.778 36.092 20.656 34.944 23.613 38.006 22.585 38.999 19.778 36.092" />
        <path class="cls-2"
            d="M26.5788,39.321a2.5245,2.5245,0,1,1-2.5245-2.5244A2.5245,2.5245,0,0,1,26.5788,39.321Zm-2.5359-1.0665A1.0871,1.0871,0,1,0,25.13,39.3416,1.0871,1.0871,0,0,0,24.0429,38.2545Z" />
        <path class="cls-2"
            d="M21.53,33.778a3.2315,3.2315,0,1,1-3.2315-3.2316A3.2315,3.2315,0,0,1,21.53,33.778ZM18.334,32.0566a1.7873,1.7873,0,1,0,1.7872,1.7872A1.7873,1.7873,0,0,0,18.334,32.0566Z" />
        <path class="cls-2"
            d="M30.247,28.2082A3.6683,3.6683,0,1,1,26.5788,24.54,3.6682,3.6682,0,0,1,30.247,28.2082Zm-3.7-2.11a2.221,2.221,0,1,0,2.221,2.2209A2.2209,2.2209,0,0,0,26.5467,26.0986Z" />
        <path class="cls-2"
            d="M17.32,16.6676a4.6451,4.6451,0,1,1-4.6451,4.6451A4.6451,4.6451,0,0,1,17.32,16.6676Zm0,1.4179a3.2272,3.2272,0,1,0,3.2273,3.2272A3.2272,3.2272,0,0,0,17.32,18.0855Z" />
        <path class="cls-2"
            d="M32.68,8.8666a5.3576,5.3576,0,1,1-5.3576-5.3577A5.3576,5.3576,0,0,1,32.68,8.8666Zm-5.3576-3.94a3.94,3.94,0,1,0,3.94,3.94A3.94,3.94,0,0,0,27.3223,4.9264Z" />
    </g>
    <path class="cls-2"
        d="M34.0157,45.3543H11.3386A11.3719,11.3719,0,0,1,0,34.0157V11.3386A11.372,11.372,0,0,1,11.3386,0H34.0157A11.3719,11.3719,0,0,1,45.3543,11.3386V34.0157A11.3718,11.3718,0,0,1,34.0157,45.3543ZM43.937,34.0157V11.3386a9.95,9.95,0,0,0-9.9213-9.9213H11.3386a9.95,9.95,0,0,0-9.9213,9.9213V34.0157a9.95,9.95,0,0,0,9.9213,9.9213H34.0157A9.95,9.95,0,0,0,43.937,34.0157Z" />
    <g class="cls-3">
        <path class="cls-2"
            d="M-98.319-1.4844A56.693,56.693,0,0,1-41.626-58.1773,56.6929,56.6929,0,0,1,15.0669-1.4844,56.693,56.693,0,0,1-41.626,55.2086,56.693,56.693,0,0,1-98.319-1.4844ZM-41.626-56.76A55.2755,55.2755,0,0,0-96.9016-1.4844,55.2756,55.2756,0,0,0-41.626,53.7912,55.2755,55.2755,0,0,0,13.65-1.4844,55.2755,55.2755,0,0,0-41.626-56.76Z" />
        <path class="cls-2"
            d="M-110.9094-20.08A85.0394,85.0394,0,0,1-25.87-105.12,85.0394,85.0394,0,0,1,59.1694-20.08,85.0393,85.0393,0,0,1-25.87,64.9591,85.0394,85.0394,0,0,1-110.9094-20.08ZM-25.87-103.7023A83.622,83.622,0,0,0-109.492-20.08,83.622,83.622,0,0,0-25.87,63.5418,83.6221,83.6221,0,0,0,57.7521-20.08,83.6221,83.6221,0,0,0-25.87-103.7023Z" />
    </g>
</svg>